<svg width="366" height="59" viewBox="0 0 366 59" fill="none" xmlns="http://www.w3.org/2000/svg">
<mask id="mask0_453_1083" style="mask-type:alpha" maskUnits="userSpaceOnUse" x="0" y="0" width="366" height="59">
<path d="M301.351 2.27633C300.502 0.863787 298.972 0 297.325 0H291.841C290.194 0 288.664 0.863787 287.815 2.27633L277.435 19.5063L274.019 25.1768L270.145 31.6044C269.769 32.2294 270.221 33.0271 270.948 33.0271H278.243C278.573 33.0271 278.878 32.8544 279.046 32.5698L282.416 26.9806C282.584 26.6961 282.894 26.5233 283.219 26.5233H298.444C299.176 26.5233 299.628 25.7256 299.247 25.1006L297.244 21.7776C296.395 20.365 294.865 19.5013 293.218 19.5013H288.587C287.855 19.5013 287.403 18.7035 287.784 18.0785L293.777 8.12976C294.143 7.52511 295.023 7.52511 295.389 8.12976L310.12 32.5749C310.288 32.8595 310.598 33.0322 310.923 33.0322H318.218C318.95 33.0322 319.402 32.2345 319.021 31.6095L301.346 2.28141L301.351 2.27633Z" fill="#014751"/>
<path d="M365.055 26.0051H333.025C332.506 26.0051 332.084 25.5833 332.084 25.0651V0.940003C332.084 0.421731 331.663 0 331.144 0H324.841C324.322 0 323.9 0.421731 323.9 0.940003L323.911 28.3322C323.911 30.9286 326.015 33.0322 328.613 33.0322H361.298C363.896 33.0322 366 30.9286 366 28.3322V26.9451C366 26.4268 365.578 26.0051 365.06 26.0051H365.055Z" fill="#014751"/>
<path d="M166.553 13.0039H147.15C146.631 13.0039 146.21 13.4248 146.21 13.9439V19.086C146.21 19.6051 146.631 20.026 147.15 20.026H166.553C167.073 20.026 167.494 19.6051 167.494 19.086V13.9439C167.494 13.4248 167.073 13.0039 166.553 13.0039Z" fill="#014751"/>
<path d="M264.137 13.0051H227.212C224.614 13.0051 222.51 15.1087 222.51 17.7051V28.3348C222.51 30.9312 224.614 33.0348 227.212 33.0348H264.137C264.655 33.0348 265.077 32.613 265.077 32.0948V26.9476C265.077 26.4293 264.655 26.0076 264.137 26.0076H231.634C231.116 26.0076 230.694 25.5859 230.694 25.0676V20.9672C230.694 20.4489 231.116 20.0272 231.634 20.0272H264.137C264.655 20.0272 265.077 19.6054 265.077 19.0872V13.94C265.077 13.4217 264.655 13 264.137 13V13.0051Z" fill="#014751"/>
<path d="M264.136 0H227.211C224.613 0 222.509 2.10357 222.509 4.70002V6.08716C222.509 6.60543 222.931 7.02716 223.449 7.02716H260.374C262.972 7.02716 265.076 4.92358 265.076 2.32714V0.940003C265.076 0.421731 264.654 0 264.136 0Z" fill="#014751"/>
<path d="M33.7529 13.0025H9.12446C8.60597 13.0025 8.18405 12.5808 8.18405 12.0625V7.96208C8.18405 7.44381 8.60597 7.02208 9.12446 7.02208H40.3204C40.8389 7.02208 41.2608 6.60035 41.2608 6.08207V4.69493C41.2608 2.10357 39.1564 0 36.5588 0H8.81438C3.94461 0 0 3.94293 0 8.81062V11.214C0 16.0817 3.94461 20.0246 8.81438 20.0246H33.4428C33.9613 20.0246 34.3832 20.4463 34.3832 20.9646V25.0651C34.3832 25.5833 33.9613 26.0051 33.4428 26.0051H1.59614C1.07765 26.0051 0.655741 26.4268 0.655741 26.9451V28.3322C0.655741 30.9286 2.76021 33.0322 5.35776 33.0322H33.758C38.6277 33.0322 42.5723 29.0893 42.5723 24.2216V21.8182C42.5723 16.9505 38.6277 13.0076 33.758 13.0076L33.7529 13.0025Z" fill="#014751"/>
<path d="M207.474 13.0025H182.845C182.327 13.0025 181.905 12.5808 181.905 12.0625V7.96208C181.905 7.44381 182.327 7.02208 182.845 7.02208H214.041C214.56 7.02208 214.982 6.60035 214.982 6.08207V4.69493C214.982 2.10357 212.877 0 210.28 0H182.535C177.665 0 173.721 3.94293 173.721 8.81062V11.214C173.721 16.0817 177.665 20.0246 182.535 20.0246H207.163C207.682 20.0246 208.104 20.4463 208.104 20.9646V25.0651C208.104 25.5833 207.682 26.0051 207.163 26.0051H175.312C174.793 26.0051 174.371 26.4268 174.371 26.9451V28.3322C174.371 30.9286 176.476 33.0322 179.073 33.0322H207.474C212.343 33.0322 216.288 29.0893 216.288 24.2216V21.8182C216.288 16.9505 212.343 13.0076 207.474 13.0076V13.0025Z" fill="#014751"/>
<path d="M131.174 0H102.123C99.5254 0 97.4209 2.10357 97.4209 4.70002V6.08716C97.4209 6.60543 97.8428 7.02716 98.3613 7.02716H130.864C131.382 7.02716 131.804 7.44889 131.804 7.96716V12.0676C131.804 12.5859 131.382 13.0076 130.864 13.0076H102.123C99.5254 13.0076 97.4209 15.1112 97.4209 17.7076V32.0973C97.4209 32.6156 97.8428 33.0373 98.3613 33.0373H104.665C105.183 33.0373 105.605 32.6156 105.605 32.0973V20.9748C105.605 20.4565 106.027 20.0348 106.545 20.0348H121.795C122.12 20.0348 122.42 20.2024 122.593 20.4717L130.223 32.5952C130.396 32.8696 130.696 33.0322 131.021 33.0322H138.29C139.032 33.0322 139.48 32.2192 139.088 31.5943L132.572 21.239C132.226 20.6953 132.511 19.9535 133.141 19.8112C133.263 19.7858 133.38 19.7451 133.497 19.7147C133.659 19.6689 133.822 19.6232 133.98 19.5724C134.168 19.5114 134.356 19.4454 134.539 19.3691C134.656 19.3234 134.763 19.2675 134.874 19.2167C135.001 19.1557 135.129 19.0998 135.251 19.0338C135.362 18.9728 135.474 18.9118 135.586 18.8458C135.703 18.7797 135.82 18.7086 135.932 18.6375C136.038 18.5714 136.145 18.5003 136.247 18.4291C136.359 18.3478 136.471 18.2665 136.577 18.1802C136.674 18.104 136.77 18.0328 136.862 17.9515C136.979 17.8499 137.096 17.7432 137.208 17.6365C137.314 17.5349 137.421 17.4332 137.528 17.3265C137.655 17.1944 137.787 17.0572 137.904 16.915C139.205 15.3805 139.998 13.3938 139.998 11.2241V8.82079C139.988 3.94293 136.038 0 131.174 0Z" fill="#014751"/>
<path d="M90.253 0H83.9497C83.4313 0 83.0093 0.421731 83.0093 0.940003V25.0651C83.0093 25.5833 82.5874 26.0051 82.0689 26.0051H57.9133C57.3948 26.0051 56.9729 25.5833 56.9729 25.0651V0.940003C56.9729 0.421731 56.551 0 56.0325 0H49.7292C49.2107 0 48.7888 0.421731 48.7888 0.940003V24.2165C48.7888 29.0842 52.7334 33.0271 57.6032 33.0271H82.379C87.2488 33.0271 91.1934 29.0842 91.1934 24.2165V0.940003C91.1934 0.421731 90.7715 0 90.253 0Z" fill="#014751"/>
<path d="M52.5565 48.3203H54.3712L58.8801 58.2742H57.5178L56.5214 56.0487H50.2385L49.1964 58.2742H47.8799L52.5514 48.3203H52.5565ZM56.1605 55.068L53.5071 49.2552H53.3901L50.5943 55.068H56.1605Z" fill="#014751"/>
<path d="M60.0742 48.3203H65.1727C69.5647 48.3203 70.3272 48.7573 70.3272 52.8425V53.7215C70.3272 57.7203 69.6663 58.2742 65.1727 58.2742H60.0742V48.3203ZM65.1117 57.2376C68.67 57.2376 69.036 56.9023 69.036 53.6656V52.8882C69.036 49.6109 68.5836 49.3467 65.1117 49.3467H61.3603V57.2376H65.1117Z" fill="#014751"/>
<path d="M71.0645 48.3203H72.442L76.468 57.2224H76.5239L80.4787 48.3203H81.8257L77.3016 58.2742H75.6343L71.0645 48.3203Z" fill="#014751"/>
<path d="M85.3934 48.3203H87.2081L91.717 58.2742H90.3547L89.3583 56.0487H83.0754L82.0334 58.2742H80.7168L85.3883 48.3203H85.3934ZM88.9974 55.068L86.344 49.2552H86.2271L83.4313 55.068H88.9974Z" fill="#014751"/>
<path d="M92.918 48.3203H94.8801L101.997 57.1614H102.053L102.022 48.3203H103.237V58.2742H101.305L94.1735 49.4178H94.1024L94.1329 58.2742H92.918V48.3203Z" fill="#014751"/>
<path d="M105.199 53.6868V52.8687C105.199 48.8852 105.992 48.1992 110.181 48.1992H110.516C114.471 48.1992 115.203 48.7124 115.203 51.1412V51.4359H113.973V51.2021C113.973 49.5762 113.576 49.2408 110.516 49.2408H110.206C106.968 49.2408 106.501 49.5914 106.501 52.884V53.6766C106.501 56.9997 106.968 57.335 110.206 57.335H110.516C113.637 57.335 114.075 57.0403 114.075 55.328V55.0943H115.305V55.4296C115.305 57.8889 114.441 58.3868 110.532 58.3868H110.181C105.977 58.3868 105.199 57.7263 105.199 53.6868Z" fill="#014751"/>
<path d="M117.256 48.3203H125.343V49.3467H118.532V52.6392H125.018V53.6199H118.532V57.2376H125.399V58.2793H117.256V48.3254V48.3203Z" fill="#014751"/>
<path d="M127.031 48.3203H132.13C136.522 48.3203 137.284 48.7573 137.284 52.8425V53.7215C137.284 57.7203 136.623 58.2742 132.13 58.2742H127.031V48.3203ZM132.069 57.2376C135.627 57.2376 135.993 56.9023 135.993 53.6656V52.8882C135.993 49.6109 135.541 49.3467 132.069 49.3467H128.317V57.2376H132.069Z" fill="#014751"/>
<path d="M143.593 48.3203H145.57L150.201 56.9734H150.247L154.817 48.3203H156.748V58.2742H155.533L155.564 49.4178H155.518L150.801 58.2742H149.601L144.828 49.4178H144.782L144.813 58.2742H143.598V48.3203H143.593Z" fill="#014751"/>
<path d="M162.614 48.3203H164.429L168.938 58.2742H167.575L166.579 56.0487H160.296L159.254 58.2742H157.938L162.609 48.3203H162.614ZM166.218 55.068L163.565 49.2552H163.448L160.652 55.068H166.218Z" fill="#014751"/>
<path d="M171.641 49.3569H167.585V48.3203H176.989V49.3569H172.933V58.2742H171.641V49.3569Z" fill="#014751"/>
<path d="M178.266 48.3203H186.353V49.3467H179.542V52.6392H186.028V53.6199H179.542V57.2376H186.409V58.2793H178.266V48.3254V48.3203Z" fill="#014751"/>
<path d="M188.041 48.3203H193.826C196.667 48.3203 197.328 48.8742 197.328 51.0895V51.4249C197.328 53.0661 196.744 53.6351 195.671 53.8282V53.8587C196.962 54.0772 197.313 54.5751 197.313 56.511V58.2843H196.037V56.9683C196.037 54.8038 195.788 54.4227 193.475 54.4227H189.302V58.2894H188.041V48.3356V48.3203ZM193.856 53.4167C195.554 53.4167 196.052 52.9644 196.052 51.6179V51.2369C196.052 49.6109 195.656 49.3315 193.577 49.3315H189.302V53.4167H193.856Z" fill="#014751"/>
<path d="M199.396 48.3203H200.688V58.2742H199.396V48.3203Z" fill="#014751"/>
<path d="M206.549 48.3203H208.363L212.872 58.2742H211.51L210.514 56.0487H204.231L203.189 58.2742H201.872L206.544 48.3203H206.549ZM210.153 55.068L207.499 49.2552H207.382L204.587 55.068H210.153Z" fill="#014751"/>
<path d="M214.066 48.3203H215.358V57.2376H221.61V58.2793H214.066V48.3254V48.3203Z" fill="#014751"/>
<path d="M226.963 55.5312V55.1806H228.178V55.4754C228.178 57.1165 228.559 57.3655 231.447 57.3655H231.813C234.476 57.3655 235.005 57.1013 235.005 55.6227V55.4195C235.005 54.1035 234.685 53.7783 231.487 53.6919C227.649 53.575 227.151 53.0059 227.151 51.0396V50.8211C227.151 48.7886 227.97 48.1992 231.253 48.1992H231.589C235.295 48.1992 235.955 48.7277 235.955 50.9938V51.2885H234.74V51.0396C234.74 49.5 234.313 49.2104 231.68 49.2104H231.386C228.854 49.2104 228.397 49.5051 228.397 50.8211V51.0243C228.397 52.2234 228.615 52.5639 231.823 52.6503C235.691 52.7824 236.245 53.326 236.245 55.3585V55.577C236.245 57.8736 235.366 58.3868 231.924 58.3868H231.513C227.502 58.3868 226.958 57.96 226.958 55.5312H226.963Z" fill="#014751"/>
<path d="M237.969 53.702V52.884C237.969 48.9004 238.762 48.1992 243.052 48.1992H243.418C247.693 48.1992 248.501 48.9004 248.501 52.884V53.702C248.501 57.7009 247.698 58.3868 243.418 58.3868H243.052C238.762 58.3868 237.969 57.7009 237.969 53.702ZM243.387 57.335C246.712 57.335 247.195 56.9539 247.195 53.6766V52.8992C247.195 49.6219 246.712 49.2408 243.387 49.2408H243.067C239.743 49.2408 239.26 49.6219 239.26 52.8992V53.6766C239.26 56.9539 239.743 57.335 243.067 57.335H243.387Z" fill="#014751"/>
<path d="M250.458 48.3203H251.749V57.2376H258.002V58.2793H250.458V48.3254V48.3203Z" fill="#014751"/>
<path d="M259.013 54.9207V48.3203H260.304V54.8038C260.304 57.0446 260.802 57.3342 263.715 57.3342H264.081C267.009 57.3342 267.568 57.0395 267.568 54.8038V48.3203H268.859V54.9207C268.859 57.8321 268.025 58.3911 264.04 58.3911H263.76C259.79 58.3911 259.013 57.8474 259.013 54.9207Z" fill="#014751"/>
<path d="M274.136 49.3569H270.079V48.3203H279.483V49.3569H275.427V58.2742H274.136V49.3569Z" fill="#014751"/>
<path d="M280.765 48.3203H282.056V58.2742H280.765V48.3203Z" fill="#014751"/>
<path d="M284.018 53.702V52.884C284.018 48.9004 284.811 48.1992 289.101 48.1992H289.467C293.742 48.1992 294.55 48.9004 294.55 52.884V53.702C294.55 57.7009 293.747 58.3868 289.467 58.3868H289.101C284.811 58.3868 284.018 57.7009 284.018 53.702ZM289.436 57.335C292.761 57.335 293.244 56.9539 293.244 53.6766V52.8992C293.244 49.6219 292.761 49.2408 289.436 49.2408H289.116C285.792 49.2408 285.309 49.6219 285.309 52.8992V53.6766C285.309 56.9539 285.792 57.335 289.116 57.335H289.436Z" fill="#014751"/>
<path d="M296.502 48.3203H298.464L305.581 57.1614H305.637L305.606 48.3203H306.821V58.2742H304.889L297.758 49.4178H297.686L297.717 58.2742H296.502V48.3203Z" fill="#014751"/>
<path d="M308.828 55.5312V55.1806H310.043V55.4754C310.043 57.1165 310.424 57.3655 313.312 57.3655H313.678C316.341 57.3655 316.87 57.1013 316.87 55.6227V55.4195C316.87 54.1035 316.55 53.7783 313.352 53.6919C309.515 53.575 309.016 53.0059 309.016 51.0396V50.8211C309.016 48.7886 309.835 48.1992 313.119 48.1992H313.454C317.16 48.1992 317.821 48.7277 317.821 50.9938V51.2885H316.606V51.0396C316.606 49.5 316.179 49.2104 313.546 49.2104H313.251C310.719 49.2104 310.262 49.5051 310.262 50.8211V51.0243C310.262 52.2234 310.48 52.5639 313.688 52.6503C317.556 52.7824 318.11 53.326 318.11 55.3585V55.577C318.11 57.8736 317.231 58.3868 313.79 58.3868H313.378C309.367 58.3868 308.823 57.96 308.823 55.5312H308.828Z" fill="#014751"/>
</mask>
<g mask="url(#mask0_453_1083)">
<rect x="-5.83984" y="-106.598" width="375.734" height="214.149" fill="#014751"/>
</g>
</svg>
