<?xml version="1.0" encoding="utf-8"?>
<svg version="1.1" id="layer" xmlns="http://www.w3.org/2000/svg" xmlns:xlink="http://www.w3.org/1999/xlink" x="0px" y="0px"
	 viewBox="0 0 652 652" style="enable-background:new 0 0 652 652;" xml:space="preserve">
<style type="text/css">
	.st0{fill:#005599;}
	.st1{fill:#ADB64E;}
</style>
<g>
	<path class="st0" d="M279.1,276.6v-29.1h21v29.1h17.3v16.9h-17.3v49.8c0,4.7,2.4,6.1,7.6,6.1c3.2,0,6.6-1,9.6-1.7V365
		c-5.8,0.7-10.8,1.4-16.6,1.4c-15.6,0-21.7-7.8-21.7-20.3v-52.5h-12.2v-16.9H279.1z"/>
	<path class="st0" d="M324.6,378.9c3.2,0.7,5.7,0.7,8.8,0.7c7.3,0,11.3-2,13.9-6.9c2-4.2,3.4-6.8,3.4-10.3c0-3.2-1.7-6.9-2.7-10.5
		l-23.5-75.2h21.2l14.6,54.2h0.3l15.1-54.2h21l-27.8,88.2c-9.3,25.2-16.8,32-34,32c-5.1,0-7.6-0.3-10.2-0.7V378.9z"/>
</g>
<rect x="405.5" y="242.4" class="st0" width="21" height="122.2"/>
<g>
	<path class="st0" d="M459.5,324c0.3,18.3,8.5,25.4,18.3,25.4c9.8,0,14.4-4.4,19.6-10.5l15.2,9.5c-8.1,12.5-20,17.9-36.9,17.9
		c-22.9,0-37.3-17.8-37.3-45.7c0-27.9,14.4-45.7,38.3-45.7c23-0.2,35.9,19.3,35.9,40.5v8.6H459.5z M493.4,309.8
		c-0.3-12.2-6.8-19.3-16.9-19.3s-16.6,7.1-16.9,19.3H493.4z"/>
	<path class="st0" d="M525,364.7v-88h19.3v15.1h0.3c5.1-10.5,12.2-16.4,27.1-17.1v22.2c-3.4,0.1-4.6,0.1-6.1,0.1
		c-10.5,0-19.6,12-19.6,14.2v53.5H525z"/>
	<path class="st0" d="M42.1,276.7c9,0,16.2,7.3,16.2,16.2c0,9-7.3,16.2-16.2,16.2c-9,0-16.2-7.3-16.2-16.2
		C25.9,284,33.2,276.7,42.1,276.7"/>
	<path class="st0" d="M69.7,304.3c8.9,0,16.2,7.3,16.2,16.2s-7.3,16.2-16.2,16.2c-9,0-16.2-7.3-16.2-16.2
		C53.5,311.6,60.7,304.3,69.7,304.3"/>
	<path class="st0" d="M97.3,331.9c8.9,0,16.2,7.3,16.2,16.2c0,9-7.3,16.2-16.2,16.2c-9,0-16.2-7.3-16.2-16.2
		C81.1,339.2,88.3,331.9,97.3,331.9"/>
	<path class="st0" d="M97.3,387.1c8.9,0,16.2,7.3,16.2,16.2c0,8.9-7.3,16.2-16.2,16.2c-9,0-16.2-7.3-16.2-16.2
		C81.1,394.4,88.3,387.1,97.3,387.1"/>
	<path class="st0" d="M124.9,359.5c8.9,0,16.2,7.3,16.2,16.2c0,9-7.3,16.2-16.2,16.2c-9,0-16.2-7.3-16.2-16.2
		C108.7,366.8,116,359.5,124.9,359.5"/>
	<path class="st0" d="M152.5,331.9c8.9,0,16.2,7.3,16.2,16.2c0,9-7.3,16.2-16.2,16.2c-8.9,0-16.2-7.3-16.2-16.2
		C136.3,339.2,143.5,331.9,152.5,331.9"/>
	<path class="st1" d="M97.3,276.7c8.9,0,16.2,7.3,16.2,16.2c0,9-7.3,16.2-16.2,16.2c-9,0-16.2-7.3-16.2-16.2
		C81.1,284,88.3,276.7,97.3,276.7"/>
	<path class="st1" d="M124.9,249.1c8.9,0,16.2,7.3,16.2,16.2c0,9-7.3,16.2-16.2,16.2c-9,0-16.2-7.3-16.2-16.2
		C108.7,256.4,116,249.1,124.9,249.1"/>
	<path class="st1" d="M152.5,276.7c8.9,0,16.2,7.3,16.2,16.2c0,9-7.3,16.2-16.2,16.2c-8.9,0-16.2-7.3-16.2-16.2
		C136.3,284,143.5,276.7,152.5,276.7"/>
	<path class="st1" d="M180.1,304.3c8.9,0,16.2,7.3,16.2,16.2s-7.3,16.2-16.2,16.2c-8.9,0-16.2-7.3-16.2-16.2
		C163.9,311.6,171.1,304.3,180.1,304.3"/>
	<path class="st1" d="M207.7,331.9c9,0,16.2,7.3,16.2,16.2c0,9-7.3,16.2-16.2,16.2c-9,0-16.2-7.3-16.2-16.2
		C191.5,339.2,198.7,331.9,207.7,331.9"/>
	<path class="st1" d="M152.5,221.5c8.9,0,16.2,7.3,16.2,16.2s-7.3,16.2-16.2,16.2c-8.9,0-16.2-7.3-16.2-16.2
		C136.3,228.8,143.5,221.5,152.5,221.5"/>
	<path class="st1" d="M376.1,393.5v-8.5h3.6v8.5h5.9v3.1h-5.9v18.3c0,1.2,0.8,1.8,2.9,1.8c1.2,0,2.2-0.1,3.2-0.3v2.9
		c-0.6,0.2-2.1,0.4-4.2,0.4c-3.9,0-5.5-1-5.5-4.2v-18.9h-4.2v-3.1H376.1z"/>
	<path class="st1" d="M410.1,413.8c-1.7,2.9-4.1,6-9.9,6c-5.7,0-11.2-4-11.2-13.4c0-8.3,4.2-13.4,10.5-13.4c5.3,0,9.8,3.5,9.8,11.7
		v2.4h-16.7c0,5.6,3.4,9.6,7.6,9.6c3.2,0,5.6-1.7,7.1-4.4L410.1,413.8z M405.8,404c0-4.7-2.3-7.9-6.1-7.9c-4.3,0-6.6,3.2-6.9,7.9
		H405.8z"/>
	<path class="st1" d="M430.4,401.2c-1-3.1-3-5.1-6.1-5.1c-4.4,0-7,3.8-7,10.3c0,6.5,2.6,10.3,7,10.3c3.3,0,5.1-1.1,7.1-4.7l2.9,1.3
		c-2.6,4.4-4.9,6.5-9.9,6.5c-6.4,0-10.5-5-10.5-13.3c0-8.3,4.1-13.4,10.5-13.4c5.3,0,7.8,3,9.4,7L430.4,401.2z"/>
	<path class="st1" d="M442.3,383.5V397h0.1c2-2.3,4.7-4,7.6-4c3.8,0,7.4,2,7.4,7.5v18.7h-3.6v-18.6c0-3.4-1.6-4.5-4.2-4.5
		c-2.7,0-5.7,2.2-7.4,3.9v19.2h-3.6v-35.7H442.3z"/>
	<path class="st1" d="M467.3,393.5v3.5h0.1c2-2.3,4.7-4,7.6-4c3.8,0,7.4,2,7.4,7.5v18.7h-3.6v-18.6c0-3.4-1.6-4.5-4.2-4.5
		c-2.7,0-5.7,2.2-7.4,3.9v19.2h-3.6v-25.7H467.3z"/>
	<path class="st1" d="M497.7,419.7c-7,0-10.5-5.9-10.5-13.3c0-7.4,3.5-13.3,10.5-13.3c7,0,10.5,5.9,10.5,13.3
		C508.3,413.8,504.8,419.7,497.7,419.7 M497.7,396.1c-4.3,0-7,3.7-7,10.3c0,6.6,2.7,10.3,7,10.3c4.2,0,7-3.7,7-10.3
		C504.7,399.8,502,396.1,497.7,396.1"/>
</g>
<rect x="513.2" y="383.5" class="st1" width="3.6" height="35.7"/>
<g>
	<path class="st1" d="M532.3,419.7c-7,0-10.5-5.9-10.5-13.3c0-7.4,3.5-13.3,10.5-13.3c7,0,10.5,5.9,10.5,13.3
		C542.8,413.8,539.3,419.7,532.3,419.7 M532.3,396.1c-4.2,0-7,3.7-7,10.3c0,6.6,2.7,10.3,7,10.3c4.3,0,7-3.7,7-10.3
		C539.2,399.8,536.5,396.1,532.3,396.1"/>
	<path class="st1" d="M568.6,396.1c-1.5,0-3.1,0.2-4,0.7c0.7,0.9,1.8,2.9,1.8,5.2c0,5.1-4.2,9-9.4,9c-2.1,0-3.2-0.3-4.6-0.7
		c-1.4,0.4-2,1.2-2,2.4c0,1.2,0.8,1.9,2.1,1.9c12.2,0,16.1,2.2,16.1,7.2c0,3.8-3.7,6.9-11.7,6.9c-7.2,0-11.1-2-11.1-6.2
		c0-2.6,1.6-3.8,4.3-5.2c-2-0.6-3.2-2.1-3.2-3.7c0-2.2,1.5-3.2,3.5-4.4c-2.4-1.8-3.5-4.3-3.5-7.2c0-5.4,4.3-9,9.7-9
		c2.8,0,4.7,0.6,6.4,1.8c1.5-1.1,3.6-2.1,5.5-2.3V396.1z M556.4,418.2c-5.6,0-7.2,2.5-7.2,4.3c0,1.9,1.2,3.2,8.3,3.2
		c4.3,0,7.7-1.2,7.8-3.7C565.3,419.4,562.7,418.2,556.4,418.2 M556.6,396.1c-4.1,0-6.2,2.6-6.2,5.9c0,3.4,2.7,5.9,6.6,5.9
		c4.1,0,6.1-2.7,6.1-5.7C563.1,398.5,560.9,396.1,556.6,396.1"/>
</g>
<path class="st1" d="M573.7,419.2h3.6v-25.7h-3.6V419.2z M573.7,387.3h3.6v-4.3h-3.6V387.3z"/>
<g>
	<path class="st1" d="M603.3,413.8c-1.7,2.9-4.1,6-9.9,6c-5.7,0-11.2-4-11.2-13.4c0-8.3,4.1-13.4,10.5-13.4c5.3,0,9.8,3.5,9.8,11.7
		v2.4h-16.7c0,5.6,3.4,9.6,7.6,9.6c3.2,0,5.6-1.7,7.1-4.4L603.3,413.8z M598.9,404c0-4.7-2.3-7.9-6.1-7.9c-4.3,0-6.6,3.2-6.9,7.9
		H598.9z"/>
	<path class="st1" d="M609.4,412.7c1.7,2.4,4.2,4,7.4,4c3.9,0,5.5-2.1,5.5-4.3c0-6.5-15.2-3.1-14.9-12.5c0.2-4.4,3.6-7,8.5-6.9
		c3.4,0.1,7.1,1.9,8.8,4.5l-2.5,2.2c-2-2.4-3.8-3.6-6.6-3.6c-3,0-4.7,1.5-4.7,3.8c0,5.6,14.9,2.7,14.9,12.3c0,5-4.3,7.5-9,7.5
		c-4,0-7.9-1.7-10.3-4.9L609.4,412.7z"/>
	<path class="st1" d="M180.2,365.8c1,0,2.1,0.1,2.1-1.3c0-1.1-0.9-1.2-1.7-1.2H179v2.5H180.2z M179,370.1h-1v-7.7h3
		c1.7,0,2.5,0.8,2.5,2.1c0,1.4-0.9,2-1.8,2.1l2.1,3.4h-1.2l-2.1-3.4H179V370.1z M185.8,366.2c0-3.1-2.3-5.6-5.4-5.6
		c-3.1,0-5.4,2.5-5.4,5.6c0,3.1,2.3,5.6,5.4,5.6C183.5,371.8,185.8,369.4,185.8,366.2 M186.9,366.2c0,3.6-2.9,6.5-6.5,6.5
		c-3.6,0-6.5-2.9-6.5-6.5c0-3.6,2.9-6.5,6.5-6.5C184,359.8,186.9,362.7,186.9,366.2"/>
</g>
</svg>
