<?xml version="1.0" encoding="utf-8"?>
<svg version="1.1" xmlns="http://www.w3.org/2000/svg" viewBox="22 218 206 206">
<style type="text/css">
	.st0{fill:#005599;}
	.st1{fill:#ADB64E;}
</style>
<g>
	<path class="st0" d="M42.1,276.7c9,0,16.2,7.3,16.2,16.2c0,9-7.3,16.2-16.2,16.2c-9,0-16.2-7.3-16.2-16.2
		C25.9,284,33.2,276.7,42.1,276.7"/>
	<path class="st0" d="M69.7,304.3c8.9,0,16.2,7.3,16.2,16.2s-7.3,16.2-16.2,16.2c-9,0-16.2-7.3-16.2-16.2
		C53.5,311.6,60.7,304.3,69.7,304.3"/>
	<path class="st0" d="M97.3,331.9c8.9,0,16.2,7.3,16.2,16.2c0,9-7.3,16.2-16.2,16.2c-9,0-16.2-7.3-16.2-16.2
		C81.1,339.2,88.3,331.9,97.3,331.9"/>
	<path class="st0" d="M97.3,387.1c8.9,0,16.2,7.3,16.2,16.2c0,8.9-7.3,16.2-16.2,16.2c-9,0-16.2-7.3-16.2-16.2
		C81.1,394.4,88.3,387.1,97.3,387.1"/>
	<path class="st0" d="M124.9,359.5c8.9,0,16.2,7.3,16.2,16.2c0,9-7.3,16.2-16.2,16.2c-9,0-16.2-7.3-16.2-16.2
		C108.7,366.8,116,359.5,124.9,359.5"/>
	<path class="st0" d="M152.5,331.9c8.9,0,16.2,7.3,16.2,16.2c0,9-7.3,16.2-16.2,16.2c-8.9,0-16.2-7.3-16.2-16.2
		C136.3,339.2,143.5,331.9,152.5,331.9"/>
	<path class="st1" d="M97.3,276.7c8.9,0,16.2,7.3,16.2,16.2c0,9-7.3,16.2-16.2,16.2c-9,0-16.2-7.3-16.2-16.2
		C81.1,284,88.3,276.7,97.3,276.7"/>
	<path class="st1" d="M124.9,249.1c8.9,0,16.2,7.3,16.2,16.2c0,9-7.3,16.2-16.2,16.2c-9,0-16.2-7.3-16.2-16.2
		C108.7,256.4,116,249.1,124.9,249.1"/>
	<path class="st1" d="M152.5,276.7c8.9,0,16.2,7.3,16.2,16.2c0,9-7.3,16.2-16.2,16.2c-8.9,0-16.2-7.3-16.2-16.2
		C136.3,284,143.5,276.7,152.5,276.7"/>
	<path class="st1" d="M180.1,304.3c8.9,0,16.2,7.3,16.2,16.2s-7.3,16.2-16.2,16.2c-8.9,0-16.2-7.3-16.2-16.2
		C163.9,311.6,171.1,304.3,180.1,304.3"/>
	<path class="st1" d="M207.7,331.9c9,0,16.2,7.3,16.2,16.2c0,9-7.3,16.2-16.2,16.2c-9,0-16.2-7.3-16.2-16.2
		C191.5,339.2,198.7,331.9,207.7,331.9"/>
	<path class="st1" d="M152.5,221.5c8.9,0,16.2,7.3,16.2,16.2s-7.3,16.2-16.2,16.2c-8.9,0-16.2-7.3-16.2-16.2
		C136.3,228.8,143.5,221.5,152.5,221.5"/>
</g>
</svg>
